<svg xmlns="http://www.w3.org/2000/svg" version="1.1" xmlns:xlink="http://www.w3.org/1999/xlink" xmlns:svgjs="http://svgjs.dev/svgjs" width="72" height="72"><svg id="SvgjsSvg1059" xmlns="http://www.w3.org/2000/svg" viewBox="0 0 72 72"><defs><style>.uuid-a6d5b93b-9bdb-41e4-970e-b765f78de7ed{fill:#231f20;}</style></defs><path class="uuid-a6d5b93b-9bdb-41e4-970e-b765f78de7ed" d="M0,0v72h72V0H0ZM56.07,52.11c-2.29,1.74-4.95,3.07-7.97,3.99-3.02.92-6.05,1.39-9.11,1.39-4.39,0-8.33-.94-11.83-2.81s-6.25-4.46-8.24-7.79c-1.99-3.31-2.99-7.06-2.99-11.25s1-7.71,2.99-11.02c1.99-3.32,4.76-5.92,8.3-7.79.96-.51,1.96-.91,2.99-1.23,2.76-.85,5.74-1.09,8.96-1.09h13.49v7.85h-12.48c-.18-.01-.35-.01-.53-.01-.21,0-.42.01-.62.01-2.45.08-4.63.64-6.56,1.68-2.09,1.13-3.72,2.72-4.89,4.77s-1.75,4.18-1.75,6.83.58,4.95,1.75,7c1.17,2.05,2.79,3.65,4.86,4.8,2.07,1.15,4.44,1.72,7.09,1.72,2.81,0,5.35-.61,7.61-1.81v-12.37h8.93v17.13Z"></path></svg><style>@media (prefers-color-scheme: light) { :root { filter: none; } }
@media (prefers-color-scheme: dark) { :root { filter: invert(100%); } }
</style></svg>